<svg width="24" height="24" viewBox="0 0 24 24" fill="none" xmlns="http://www.w3.org/2000/svg">
<path d="M5.001 4C5.157 4 5.307 4.035 5.447 4.106L19.447 11.105C19.788 11.276 20 11.618 20 12C20 12.382 19.788 12.724 19.447 12.894L5.446 19.895C5.308 19.964 5.154 20 5 20C4.814 20 4.632 19.948 4.474 19.85C4.182 19.669 4 19.344 4 19V5C4 4.651 4.177 4.333 4.474 4.149C4.632 4.051 4.814 4 5.001 4ZM5 2C4.451 2 3.904 2.15 3.422 2.448C2.538 2.995 2 3.96 2 5V19C2 20.04 2.538 21.005 3.423 21.552C3.905 21.85 4.452 22 5 22C5.458 22 5.918 21.895 6.341 21.683L20.342 14.683C21.358 14.175 22 13.136 22 12C22 10.864 21.358 9.825 20.342 9.317L6.342 2.317C5.918 2.105 5.459 2 5 2Z" fill="white"/>
</svg>
