<svg width="24" height="24" viewBox="0 0 24 24" fill="none" xmlns="http://www.w3.org/2000/svg">
<path d="M22 15V17C22 18.657 20.657 20 19 20C17.895 20 17 19.105 17 18V14C17 13.262 17.405 12.624 18 12.277V12C18 8.692 15.309 6 12 6C8.691 6 6 8.692 6 12V12.277C6.595 12.623 7 13.261 7 14V18C7 19.105 6.105 20 5 20C3.343 20 2 18.657 2 17V15C2 13.694 2.836 12.587 4 12.174V12C4 7.589 7.589 4 12 4C16.411 4 20 7.589 20 12V12.174C21.164 12.586 22 13.694 22 15ZM8 14V18C8.552 18 9 17.552 9 17V15C9 14.448 8.552 14 8 14ZM15 15V17C15 17.552 15.448 18 16 18V14C15.448 14 15 14.448 15 15Z" fill="#FF6767"/>
</svg>
