<svg width="24" height="24" viewBox="0 0 24 24" fill="none" xmlns="http://www.w3.org/2000/svg">
<path d="M17.0008 4C17.5518 4 18.0009 4.449 18.0009 5V19C18.0009 19.382 17.7779 19.736 17.4358 19.901C17.2978 19.967 17.1518 20 17.0008 20C16.7748 20 16.5518 19.922 16.3758 19.781L13.2496 17.28C12.8846 16.988 12.4425 16.842 12.0005 16.842C11.5585 16.842 11.1164 16.988 10.7514 17.28L7.62623 19.78C7.44922 19.922 7.2262 19.999 7.00019 19.999C6.84918 19.999 6.70417 19.966 6.56916 19.901C6.22414 19.735 6.00213 19.381 6.00213 18.999V5C6.00213 4.449 6.45115 4 7.00219 4H17.0028M17.0028 2H7.00019C5.34308 2 4 3.343 4 5V19C4 20.153 4.66104 21.204 5.70011 21.704C6.11313 21.903 6.55716 22 6.99819 22C7.66723 22 8.33127 21.776 8.8733 21.343L11.9995 18.842L15.1257 21.343C15.6677 21.777 16.3318 22 17.0008 22C17.4418 22 17.8869 21.902 18.2999 21.704C19.339 21.204 20 20.153 20 19V5C20 3.343 18.6569 2 16.9998 2H17.0028Z" fill="black"/>
</svg>
