<svg width="24" height="24" viewBox="0 0 24 24" fill="none" xmlns="http://www.w3.org/2000/svg">
<path d="M14.3461 22H9.65215C7.04919 22 4.90821 20.045 4.67322 17.4531L4.19722 12.2171L3.70723 12.7071C3.31723 13.0981 2.68324 13.0981 2.29325 12.7071C1.90225 12.3171 1.90225 11.6831 2.29325 11.2931L4.28822 9.29816C4.28822 9.29816 4.29522 9.29116 4.29822 9.28816L11.2921 2.29325C11.6821 1.90225 12.3151 1.90225 12.7061 2.29325L19.701 9.28716C19.701 9.28716 19.708 9.29416 19.711 9.29716L21.706 11.2921C22.097 11.6821 22.097 12.3161 21.706 12.7061C21.315 13.0971 20.683 13.0971 20.292 12.7061L19.802 12.2161L19.326 17.4521C19.091 20.044 16.9501 21.999 14.3471 21.999L14.3461 22ZM10.9991 20H12.9991V17.0001C12.9991 16.4491 12.5501 16.0001 11.9991 16.0001C11.4481 16.0001 10.9991 16.4491 10.9991 17.0001V20ZM11.9991 14.0001C13.6531 14.0001 14.9991 15.3461 14.9991 17.0001V19.93C16.2531 19.656 17.2131 18.604 17.3331 17.2721L17.96 10.3761L11.9991 4.41422L6.0372 10.3761L6.66419 17.2721C6.78519 18.604 7.74518 19.655 8.99916 19.93V17.0001C8.99916 15.3461 10.3451 14.0001 11.9991 14.0001Z" fill="black"/>
</svg>
