<svg width="24" height="24" viewBox="0 0 24 24" fill="none" xmlns="http://www.w3.org/2000/svg">
<path d="M12 21.999C6.486 21.999 2 17.5132 2 11.9995C2 8.65567 3.661 5.54682 6.444 3.68492C6.902 3.37793 7.524 3.50093 7.831 3.9599C8.138 4.41888 8.015 5.03985 7.556 5.34683C5.329 6.83676 4 9.32463 4 11.9995C4 16.4103 7.589 19.9991 12 19.9991C16.411 19.9991 20 16.4103 20 11.9995C20 9.33763 18.681 6.85776 16.472 5.36583C16.014 5.05685 15.894 4.43488 16.203 3.9779C16.512 3.52092 17.133 3.40093 17.592 3.70891C20.352 5.57382 22 8.67367 22 12.0005C22 17.5142 17.514 22 12 22V21.999ZM12 12.9995C11.448 12.9995 11 12.5515 11 11.9995V2.99995C11 2.44798 11.448 2 12 2C12.552 2 13 2.44798 13 2.99995V11.9995C13 12.5515 12.552 12.9995 12 12.9995Z" fill="black"/>
</svg>
