<svg width="24" height="24" viewBox="0 0 24 24" fill="none" xmlns="http://www.w3.org/2000/svg">
<path d="M12 12C9.243 12 7 9.757 7 7C7 4.243 9.243 2 12 2C14.757 2 17 4.243 17 7C17 9.757 14.757 12 12 12ZM12 4C10.346 4 9 5.346 9 7C9 8.654 10.346 10 12 10C13.654 10 15 8.654 15 7C15 5.346 13.654 4 12 4ZM12 15C15.421 15 18 16.72 18 19C18 19.551 17.551 20 17 20H7C6.449 20 6 19.551 6 19C6 16.72 8.579 15 12 15ZM12 13C7.439 13 4 15.58 4 19C4 20.657 5.343 22 7 22H17C18.657 22 20 20.657 20 19C20 15.58 16.561 13 12 13Z" fill="black"/>
</svg>
