<svg width="24" height="24" viewBox="0 0 24 24" fill="none" xmlns="http://www.w3.org/2000/svg">
<path d="M21 22C20.744 22 20.488 21.902 20.293 21.707L17.47 18.884C15.838 20.207 13.76 21 11.5 21C6.262 21 2 16.738 2 11.5C2 6.262 6.262 2 11.5 2C16.738 2 21 6.262 21 11.5C21 13.76 20.207 15.838 18.884 17.47L21.707 20.293C22.098 20.684 22.098 21.316 21.707 21.707C21.512 21.902 21.256 22 21 22ZM11.5 4C7.365 4 4 7.365 4 11.5C4 15.635 7.365 19 11.5 19C15.635 19 19 15.636 19 11.5C19 7.364 15.636 4 11.5 4Z" fill="black"/>
</svg>
